<svg width="35" height="34" viewBox="0 0 35 34" fill="none" xmlns="http://www.w3.org/2000/svg">
<path d="M32.0381 17.3389C32.0381 16.2408 31.9395 15.185 31.7565 14.1714H17.1719V20.1685H25.506C25.1399 22.0972 24.0419 23.7302 22.3948 24.8283V28.7279H27.4205C30.3487 26.0249 32.0381 22.055 32.0381 17.3389Z" fill="#4285F4"/>
<path d="M17.1721 32.4726C21.3532 32.4726 24.8586 31.093 27.4208 28.7279L22.395 24.8284C21.0153 25.7575 19.2556 26.3206 17.1721 26.3206C13.1458 26.3206 9.72492 23.6036 8.50015 19.9434H3.34766V23.9415C5.89575 28.9954 11.1186 32.4726 17.1721 32.4726Z" fill="#34A853"/>
<path d="M8.50118 19.9293C8.19146 19.0001 8.00845 18.0147 8.00845 16.987C8.00845 15.9593 8.19146 14.9739 8.50118 14.0447V10.0466H3.34869C2.29285 12.1302 1.6875 14.4812 1.6875 16.987C1.6875 19.4929 2.29285 21.8439 3.34869 23.9274L7.36087 20.8021L8.50118 19.9293Z" fill="#FBBC05"/>
<path d="M17.1721 7.66732C19.4527 7.66732 21.4799 8.45567 23.0989 9.97608L27.5334 5.54156C24.8445 3.03571 21.3532 1.50122 17.1721 1.50122C11.1186 1.50122 5.89575 4.97845 3.34766 10.0465L8.50015 14.0446C9.72492 10.3843 13.1458 7.66732 17.1721 7.66732Z" fill="#EA4335"/>
</svg>
