<svg width="24" height="25" viewBox="0 0 24 25" fill="none" xmlns="http://www.w3.org/2000/svg">
<path d="M21.5 18.7869L14.8571 12.7869M9.14286 12.7869L2.50003 18.7869M2 7.78687L10.1649 13.5023C10.8261 13.9651 11.1567 14.1965 11.5163 14.2862C11.8339 14.3653 12.1661 14.3653 12.4837 14.2862C12.8433 14.1965 13.1739 13.9651 13.8351 13.5023L22 7.78687M6.8 20.7869H17.2C18.8802 20.7869 19.7202 20.7869 20.362 20.4599C20.9265 20.1723 21.3854 19.7133 21.673 19.1488C22 18.5071 22 17.667 22 15.9869V9.58687C22 7.90671 22 7.06663 21.673 6.42489C21.3854 5.86041 20.9265 5.40147 20.362 5.11385C19.7202 4.78687 18.8802 4.78687 17.2 4.78687H6.8C5.11984 4.78687 4.27976 4.78687 3.63803 5.11385C3.07354 5.40147 2.6146 5.86041 2.32698 6.42489C2 7.06663 2 7.90671 2 9.58687V15.9869C2 17.667 2 18.5071 2.32698 19.1488C2.6146 19.7133 3.07354 20.1723 3.63803 20.4599C4.27976 20.7869 5.11984 20.7869 6.8 20.7869Z" stroke="#111928" stroke-width="2" stroke-linecap="round" stroke-linejoin="round"/>
</svg>
