<svg width="24" height="25" viewBox="0 0 24 25" fill="none" xmlns="http://www.w3.org/2000/svg">
<path d="M14.0497 6.78687C15.0264 6.97743 15.924 7.45512 16.6277 8.1588C17.3314 8.86248 17.8091 9.76013 17.9997 10.7369M14.0497 2.78687C16.0789 3.0123 17.9713 3.92104 19.4159 5.36387C20.8606 6.80671 21.7717 8.69788 21.9997 10.7269M10.2266 14.6499C9.02506 13.4484 8.07627 12.0897 7.38028 10.6401C7.32041 10.5154 7.29048 10.4531 7.26748 10.3742C7.18576 10.0938 7.24446 9.74956 7.41447 9.51213C7.46231 9.44531 7.51947 9.38816 7.63378 9.27385C7.98338 8.92424 8.15819 8.74944 8.27247 8.57366C8.70347 7.91077 8.70347 7.05619 8.27247 6.3933C8.15819 6.21752 7.98338 6.04272 7.63378 5.69311L7.43891 5.49824C6.90747 4.9668 6.64174 4.70108 6.35636 4.55673C5.7888 4.26966 5.11854 4.26966 4.55098 4.55673C4.2656 4.70108 3.99987 4.9668 3.46843 5.49824L3.3108 5.65587C2.78117 6.1855 2.51636 6.45031 2.31411 6.81034C2.08969 7.20985 1.92833 7.83034 1.9297 8.28856C1.93092 8.70151 2.01103 8.98373 2.17124 9.54818C3.03221 12.5816 4.65668 15.4439 7.04466 17.8319C9.43264 20.2199 12.295 21.8444 15.3284 22.7053C15.8928 22.8655 16.1751 22.9456 16.588 22.9469C17.0462 22.9482 17.6667 22.7869 18.0662 22.5625C18.4263 22.3602 18.6911 22.0954 19.2207 21.5658L19.3783 21.4081C19.9098 20.8767 20.1755 20.611 20.3198 20.3256C20.6069 19.758 20.6069 19.0878 20.3198 18.5202C20.1755 18.2348 19.9098 17.9691 19.3783 17.4377L19.1835 17.2428C18.8339 16.8932 18.6591 16.7184 18.4833 16.6041C17.8204 16.1731 16.9658 16.1731 16.3029 16.6041C16.1271 16.7184 15.9523 16.8932 15.6027 17.2428C15.4884 17.3571 15.4313 17.4143 15.3644 17.4621C15.127 17.6321 14.7828 17.6908 14.5024 17.6091C14.4235 17.5861 14.3612 17.5562 14.2365 17.4963C12.7869 16.8003 11.4282 15.8515 10.2266 14.6499Z" stroke="#111928" stroke-width="2" stroke-linecap="round" stroke-linejoin="round"/>
</svg>
