<svg width="22" height="22" viewBox="0 0 22 22" fill="none" xmlns="http://www.w3.org/2000/svg">
<path d="M10.8273 1.25292C11.1094 0.721805 11.8704 0.721806 12.1525 1.25292L14.5408 5.74966C14.6492 5.95384 14.8458 6.09662 15.0735 6.13666L20.0881 7.01851C20.6804 7.12266 20.9156 7.84644 20.4976 8.27884L16.959 11.9398C16.7983 12.1061 16.7233 12.3371 16.7556 12.566L17.4665 17.6077C17.5505 18.2032 16.9348 18.6506 16.3944 18.3867L11.8191 16.1526C11.6114 16.0511 11.3684 16.0511 11.1607 16.1526L6.5854 18.3867C6.045 18.6506 5.42932 18.2032 5.51329 17.6077L6.22423 12.566C6.25651 12.3371 6.18145 12.1061 6.02077 11.9398L2.48215 8.27884C2.06419 7.84644 2.29936 7.12266 2.89165 7.01851L7.90634 6.13666C8.13403 6.09662 8.33055 5.95384 8.43899 5.74966L10.8273 1.25292Z" fill="#6A6A6A"/>
<mask id="mask0_4401_6862" style="mask-type:alpha" maskUnits="userSpaceOnUse" x="0" y="0" width="14" height="22">
<rect x="0.986328" y="0.00537109" width="12.3792" height="21.0071" fill="#D9D9D9"/>
</mask>
<g mask="url(#mask0_4401_6862)">
<path d="M10.8273 1.25292C11.1094 0.721805 11.8704 0.721806 12.1525 1.25292L14.5408 5.74966C14.6492 5.95384 14.8458 6.09662 15.0735 6.13666L20.0881 7.01851C20.6804 7.12266 20.9156 7.84644 20.4976 8.27884L16.959 11.9398C16.7983 12.1061 16.7233 12.3371 16.7556 12.566L17.4665 17.6077C17.5505 18.2032 16.9348 18.6506 16.3944 18.3867L11.8191 16.1526C11.6114 16.0511 11.3684 16.0511 11.1607 16.1526L6.5854 18.3867C6.045 18.6506 5.42932 18.2032 5.51329 17.6077L6.22423 12.566C6.25651 12.3371 6.18145 12.1061 6.02077 11.9398L2.48215 8.27884C2.06419 7.84644 2.29936 7.12266 2.89165 7.01851L7.90634 6.13666C8.13403 6.09662 8.33055 5.95384 8.43899 5.74966L10.8273 1.25292Z" fill="#FCD503"/>
</g>
</svg>
